<svg id="6cec28dd-062f-401b-a609-3c59bce0a765" data-name="Layer 1" xmlns="http://www.w3.org/2000/svg" width="96.5" height="96.48" viewBox="0 0 96.5 96.48"><title>CT ST Logo icon</title><path d="M50.48,88.13c-.75,0-1.5.06-2.24.06A39.91,39.91,0,0,1,10.85,62.32L2.25,61.1,1,55l7.34-4.42c-.05-.79-.07-1.57-.07-2.35A39.92,39.92,0,0,1,34,10.88l1.18-8.61L41.3,1l4.45,7.32c.84-.05,1.67-.08,2.49-.08A39.9,39.9,0,0,1,85.66,34.18l8.6,1.23,1.24,6.11-7.35,4.42c0,.76.07,1.52.07,2.28a39.89,39.89,0,0,1-26,37.44L61,94.25l-6.12,1.23Z" fill="#fff"/><path d="M46.05,24.08C42.48,32,33.92,57.81,30.13,67.14L32,68.62l41.88-25.2-.39-1.79L66,40.76A29.49,29.49,0,0,1,58.25,31l-1.09-.48-3.61,1.08A23.41,23.41,0,0,1,47.77,24Z" fill="#cc5e31"/><path d="M92.42,40.17,92,37.86l-8.33-1.19A37.11,37.11,0,0,0,44.28,11.21L40,4.09l-2.31.48L36.5,12.9A37.18,37.18,0,0,0,11.22,52l-7.14,4.3.47,2.31,8.34,1.18A37.28,37.28,0,0,0,48.24,85.44,35.09,35.09,0,0,0,52,85.25l4.28,7.15,2.31-.46,1.2-8.33A37.28,37.28,0,0,0,85.47,48.22c0-1.27-.07-2.53-.19-3.77Zm-44.18,41a33,33,0,1,1,33-33A33,33,0,0,1,48.24,81.19Z" fill="#cc5e31"/></svg>