<?xml version="1.0" encoding="UTF-8" standalone="no"?>
<svg
   xmlns:dc="http://purl.org/dc/elements/1.1/"
   xmlns:cc="http://creativecommons.org/ns#"
   xmlns:rdf="http://www.w3.org/1999/02/22-rdf-syntax-ns#"
   xmlns:svg="http://www.w3.org/2000/svg"
   xmlns="http://www.w3.org/2000/svg"
   xmlns:sodipodi="http://sodipodi.sourceforge.net/DTD/sodipodi-0.dtd"
   xmlns:inkscape="http://www.inkscape.org/namespaces/inkscape"
   width="64"
   height="64"
   version="1"
   id="svg4499"
   sodipodi:docname="IAPBuilder.svg"
   inkscape:version="0.92.0 r15299">
  <metadata
     id="metadata4505">
    <rdf:RDF>
      <cc:Work
         rdf:about="">
        <dc:format>image/svg+xml</dc:format>
        <dc:type
           rdf:resource="http://purl.org/dc/dcmitype/StillImage" />
      </cc:Work>
    </rdf:RDF>
  </metadata>
  <defs
     id="defs4503" />
  <sodipodi:namedview
     pagecolor="#ffffff"
     bordercolor="#666666"
     borderopacity="1"
     objecttolerance="10"
     gridtolerance="10"
     guidetolerance="10"
     inkscape:pageopacity="0"
     inkscape:pageshadow="2"
     inkscape:window-width="2400"
     inkscape:window-height="1321"
     id="namedview4501"
     showgrid="false"
     inkscape:zoom="13.671875"
     inkscape:cx="31.707429"
     inkscape:cy="42.889143"
     inkscape:window-x="2391"
     inkscape:window-y="-9"
     inkscape:window-maximized="1"
     inkscape:current-layer="svg4499" />
  <path
     style="opacity:0.2"
     d="m 14.5,7.9999999 c -1.385,0 -2.5,1.115 -2.5,2.5000001 v 45 c 0,1.385 1.115,2.5 2.5,2.5 h 35 C 50.885,58 52,56.885 52,55.5 V 23 L 38.25,21.75 37,7.9999999 Z"
     id="path4485" />
  <path
     fill="#4bae4f"
     d="m14.5 7c-1.385 0-2.5 1.115-2.5 2.5v45c0 1.385 1.115 2.5 2.5 2.5h35c1.385 0 2.5-1.115 2.5-2.5v-32.5l-13.75-1.25-1.25-13.75z"
     id="path4487" />
  <path
     style="opacity:0.2"
     d="M 37,7.9999999 V 20.5 c 0,1.3808 1.1193,2.5 2.5,2.5 H 52 Z"
     id="path4489" />
  <path
     fill="#95cd97"
     d="m37 7v12.5c0 1.3808 1.1193 2.5 2.5 2.5h12.5l-15-15z"
     id="path4491" />
  <path
     style="opacity:0.2"
     d="M 20,32 V 50 H 43 V 32 Z m 3,3 h 7 v 2 h -7 z m 10,0 h 7 v 2 h -7 z m -10,5 h 7 v 2 h -7 z m 10,0 h 7 v 2 h -7 z m -10,5 h 7 v 2 h -7 z m 10,0 h 7 v 2 h -7 z"
     id="path4493" />
  <path
     fill="#fff"
     d="m20 31v18h23v-18zm3 3h7v2h-7zm10 0h7v2h-7zm-10 5h7v2h-7zm10 0h7v2h-7zm-10 5h7v2h-7zm10 0h7v2h-7z"
     id="path4495" />
  <path
     style="opacity:0.1;fill:#ffffff"
     d="m 14.5,6.9999999 c -1.385,0 -2.5,1.115 -2.5,2.5 V 10.5 C 12,9.1149999 13.115,7.9999999 14.5,7.9999999 H 37 c 0,-1 0,0 0,-1 z"
     id="path4497" />
  <text
     xml:space="preserve"
     style="font-style:normal;font-variant:normal;font-weight:normal;font-stretch:normal;font-size:16px;line-height:25px;font-family:sans-serif;-inkscape-font-specification:'sans-serif, Normal';font-variant-ligatures:normal;font-variant-caps:normal;font-variant-numeric:normal;font-feature-settings:normal;text-align:start;letter-spacing:0px;word-spacing:0px;writing-mode:lr-tb;text-anchor:start;fill:#000000;fill-opacity:1;stroke:none"
     x="11.702857"
     y="25.453714"
     id="text4515"><tspan
       sodipodi:role="line"
       id="tspan4517"
       x="11.702857"
       y="25.453714">IAP</tspan></text>
</svg>
